Patient4_TMGait_0pt6_02_right_29_GRF.mot
version=1
nRows=78
nColumns=19
inDegrees=no
endheader
time	F1x	F1y	F1z	M1x	M1y	M1z	F2x	F2y	F2z	M2x	M2y	M2z	EC1x	EC1y	EC1z	EC2x	EC2y	EC2z
34.88	5.8127	789.3928	67.4672	-282.6769	-74.5559	924.9496	-4.9611	0.94782	14.2858	-3.066	-12.2585	-2.0757	-0.0592	0.0182	-0.0073	-0.0462	0.0165	0.9585
34.8923	1.9955	772.9237	66.8113	-276.7827	-74.3272	902.1258	-3.4712	1.6954	9.798	-1.7097	-8.3637	-0.10473	-0.0592	0.0182	-0.0073	-0.0462	0.0165	0.9585
34.9046	-0.81552	754.9709	65.5722	-270.3875	-73.1207	877.1509	-2.2152	2.3655	5.9079	-0.52238	-4.9855	1.5936	-0.0592	0.0182	-0.0073	-0.0462	0.0165	0.9585
34.9169	-2.4489	736.961	63.7827	-264.0043	-70.9473	851.8773	-1.2672	2.9196	2.8818	0.41581	-2.3551	2.9251	-0.0592	0.0182	-0.0073	-0.0462	0.0165	0.9585
34.9291	-2.9948	720.2894	61.5239	-258.1336	-67.9479	828.0699	-0.62308	3.3566	0.7487	1.0963	-0.49643	3.8962	-0.0592	0.0182	-0.0073	-0.0462	0.0165	0.9585
34.9414	-2.659	706.1495	58.9695	-253.1956	-64.388	807.1827	-0.24016	3.6702	-0.60518	1.5424	0.69038	4.5398	-0.0592	0.0182	-0.0073	-0.0462	0.0165	0.9585
34.9537	-1.73	695.3749	56.3116	-249.4781	-60.573	790.1922	-0.061997	3.8777	-1.3398	1.7963	1.3461	4.9283	-0.0592	0.0182	-0.0073	-0.0462	0.0165	0.9585
34.966	-0.44891	688.3796	53.7806	-247.1148	-56.8238	777.5435	-0.031779	3.9565	-1.6362	1.8904	1.6296	5.07	-0.0592	0.0182	-0.0073	-0.0462	0.0165	0.9585
34.9783	1.0472	685.2295	51.5309	-246.1148	-53.3506	769.2633	-0.11082	3.8578	-1.6486	1.8455	1.6763	4.9366	-0.0592	0.0182	-0.0073	-0.0462	0.0165	0.9585
34.9906	2.7286	685.6867	49.6707	-246.3854	-50.2684	765.0055	-0.24864	3.4984	-1.5116	1.6639	1.601	4.4461	-0.0592	0.0182	-0.0073	-0.0462	0.0165	0.9585
35.0029	4.645	689.3331	48.2074	-247.768	-47.5579	764.2246	-0.41847	2.7722	-1.3105	1.3322	1.4765	3.4856	-0.0592	0.0182	-0.0073	-0.0462	0.0165	0.9585
35.0151	6.9129	695.5677	47.1456	-250.0368	-45.1731	766.1887	-0.57509	1.5757	-1.1071	0.82741	1.3474	1.9293	-0.0592	0.0182	-0.0073	-0.0462	0.0165	0.9585
35.0274	9.6096	703.6309	46.4767	-252.9087	-43.0684	770.0092	-0.68413	-0.16564	-0.92918	0.12911	1.2217	-0.31543	-0.0592	0.0182	-0.0073	-0.0462	0.0165	0.9585
35.0397	12.7962	712.6574	46.2353	-256.0607	-41.251	774.6892	-0.69751	-2.4635	-0.7874	-0.76426	1.0837	-3.271	-0.0592	0.0182	-0.0073	-0.0462	0.0165	0.9585
35.052	16.5002	721.7742	46.4529	-259.165	-39.7387	779.2682	-0.55222	-5.18	-0.67171	-1.8027	0.89316	-6.7644	-0.0592	0.0182	-0.0073	-0.0462	0.0165	0.9585
35.0643	20.7368	730.1843	47.1583	-261.929	-38.552	782.8742	-0.16756	-7.9703	-0.57	-2.8595	0.60416	-10.3574	-0.0592	0.0182	-0.0073	-0.0462	0.0165	0.9585
35.0766	25.4771	737.2843	48.3476	-264.1324	-37.6945	784.8745	0.54338	-10.1673	-0.46027	-3.6853	0.16574	-13.1967	-0.0592	0.0182	-0.0073	-0.0462	0.0165	0.9585
35.0889	30.7142	742.6472	49.965	-265.63	-37.1131	784.8504	1.6653	-10.7073	-0.33379	-3.8783	-0.45413	-13.9193	-0.0592	0.0182	-0.0073	-0.0462	0.0165	0.9585
35.1011	36.3888	746.0217	51.923	-266.3477	-36.735	782.6115	3.2454	-8.0255	-0.18309	-2.8458	-1.2649	-10.5379	-0.0592	0.0182	-0.0073	-0.0462	0.0165	0.9585
35.1134	42.4239	747.2506	54.0777	-266.2532	-36.4421	778.0826	5.2569	-0.063645	-0.021773	0.19275	-2.2191	-0.44795	-0.0592	0.0182	-0.0073	-0.0462	0.0165	0.9585
35.1257	48.7004	746.1644	56.268	-265.3113	-36.1185	771.2169	7.5247	15.6361	0.12135	6.169	-3.1906	19.4677	-0.0592	0.0182	-0.0073	-0.0462	0.0165	0.9585
35.138	55.0545	742.4083	58.2568	-263.4271	-35.5953	761.7733	9.6679	41.6027	0.18949	16.0398	-3.9347	52.4265	-0.0592	0.0182	-0.0073	-0.0462	0.0165	0.9585
35.1503	61.2448	735.2653	59.7966	-260.3808	-34.7165	749.1595	10.9926	79.8358	0.093768	30.5604	-4.0593	100.984	-0.0592	0.0182	-0.0073	-0.0462	0.0165	0.9585
35.1626	66.9861	723.6106	60.5708	-255.8115	-33.2783	732.3765	10.4515	130.8457	-0.29693	49.9187	-2.9968	165.7991	-0.0592	0.0182	-0.0073	-0.0462	0.0165	0.9585
35.1749	71.9168	705.986	60.2958	-249.2398	-31.1373	710.0995	6.6238	192.2607	-1.1548	73.2105	-0.014134	243.8796	-0.0592	0.0182	-0.0073	-0.0462	0.0165	0.9585
35.1871	75.6116	680.8182	58.7032	-240.1431	-28.1939	680.8948	-1.3832	257.8468	-2.7513	98.0533	5.5001	327.3535	-0.0592	0.0182	-0.0073	-0.0462	0.0165	0.9585
35.1994	77.6428	646.8458	55.6854	-228.0901	-24.5153	643.6345	-12.0865	318.8441	-5.8	121.0694	13.7814	405.048	-0.0592	0.0182	-0.0073	-0.0462	0.0165	0.9585
35.2117	77.6487	603.5946	51.3357	-212.8989	-20.3405	597.9369	-23.1996	368.9456	-10.7211	139.8364	24.29	468.7308	-0.0592	0.0182	-0.0073	-0.0462	0.0165	0.9585
35.224	75.4121	551.6955	46.0242	-194.7371	-16.1054	544.4714	-33.2297	408.4199	-16.7713	154.4325	35.6562	518.4343	-0.0592	0.0182	-0.0073	-0.0462	0.0165	0.9585
35.2363	70.9777	492.6534	40.2467	-174.0774	-12.2605	484.705	-41.2069	440.9735	-23.547	166.2904	46.9712	558.7356	-0.0592	0.0182	-0.0073	-0.0462	0.0165	0.9585
35.2486	64.5327	428.7376	34.4086	-151.6661	-9.1058	420.8165	-46.8577	470.9601	-29.9888	177.1406	56.9497	595.0939	-0.0592	0.0182	-0.0073	-0.0462	0.0165	0.9585
35.2609	56.4197	362.6957	28.7245	-128.4464	-6.7082	355.4047	-50.2808	501.5856	-35.7733	188.2569	65.188	631.5616	-0.0592	0.0182	-0.0073	-0.0462	0.0165	0.9585
35.2731	47.124	297.5967	23.3365	-105.4914	-5.0185	291.3717	-51.7321	534.4758	-40.4216	200.3071	71.2866	670.1506	-0.0592	0.0182	-0.0073	-0.0462	0.0165	0.9585
35.2854	37.3396	236.4337	18.3492	-83.8648	-3.8873	231.4902	-51.5823	569.9287	-44.4012	213.3918	75.9012	711.3043	-0.0592	0.0182	-0.0073	-0.0462	0.0165	0.9585
35.2977	27.8212	181.6447	13.9075	-64.4433	-3.173	178.0013	-50.251	607.192	-47.9392	227.1998	79.524	754.1456	-0.0592	0.0182	-0.0073	-0.0462	0.0165	0.9585
35.31	19.257	134.7378	10.128	-47.7813	-2.7346	132.2433	-48.2607	644.5875	-51.6508	241.0473	83.0356	796.7465	-0.0592	0.0182	-0.0073	-0.0462	0.0165	0.9585
35.3223	12.0236	96.2241	7.082	-34.0796	-2.4979	94.6638	-46.1153	680.0804	-55.6372	254.1435	86.7756	836.7239	-0.0592	0.0182	-0.0073	-0.0462	0.0165	0.9585
35.3346	6.228	65.7673	4.7347	-23.2405	-2.389	64.9214	-44.1813	711.9821	-60.0198	265.8368	90.9818	872.1289	-0.0592	0.0182	-0.0073	-0.0462	0.0165	0.9585
35.3469	1.8294	42.5653	3.0178	-14.9903	-2.3556	42.2558	-42.5514	739.337	-64.3914	275.7866	95.2404	901.8361	-0.0592	0.0182	-0.0073	-0.0462	0.0165	0.9585
35.3591	-1.1967	25.5453	1.7938	-8.9542	-2.2819	25.6306	-41.1656	761.6583	-68.5123	283.8276	99.225	925.3111	-0.0592	0.0182	-0.0073	-0.0462	0.0165	0.9585
35.3714	-2.9083	13.6079	0.95762	-4.737	-2.0955	13.9706	-39.8802	778.5747	-72.0627	289.8447	102.5222	942.1428	-0.0592	0.0182	-0.0073	-0.0462	0.0165	0.9585
35.3837	-3.4559	5.7756	0.39698	-1.9845	-1.7548	6.306	-38.6095	789.6848	-74.9489	293.7024	104.9711	951.9139	-0.0592	0.0182	-0.0073	-0.0462	0.0165	0.9585
35.396	-3.2448	1.202	0.06076	-0.38668	-1.3574	1.8152	-37.2875	794.7072	-77.0711	295.3101	106.4354	954.3546	-0.0592	0.0182	-0.0073	-0.0462	0.0165	0.9585
35.4083	-2.6505	-0.97247	-0.11339	0.36434	-0.97949	-0.33004	-35.8506	793.7326	-78.4726	294.7027	106.9518	949.6503	-0.0592	0.0182	-0.0073	-0.0462	0.0165	0.9585
35.4206	-1.9411	-1.5512	-0.16245	0.55408	-0.68027	-0.89956	-34.2612	787.4152	-79.1864	292.1321	106.5674	938.6206	-0.0592	0.0182	-0.0073	-0.0462	0.0165	0.9585
35.4329	-1.2592	-1.1842	-0.14729	0.41202	-0.45406	-0.52684	-32.4517	777.0927	-79.3031	288.097	105.388	922.8517	-0.0592	0.0182	-0.0073	-0.0462	0.0165	0.9585
35.4451	-0.69102	-0.35157	-0.089645	0.10841	-0.30509	0.32318	-30.3713	764.5104	-78.9446	283.2495	103.5555	904.3848	-0.0592	0.0182	-0.0073	-0.0462	0.0165	0.9585
35.4574	-0.25944	0.62575	-0.026802	-0.24592	-0.20449	1.3262	-28.0258	751.4749	-78.242	278.2684	101.2387	885.31	-0.0592	0.0182	-0.0073	-0.0462	0.0165	0.9585
35.4697	0.034801	1.5581	0.039397	-0.58352	-0.14774	2.3032	-25.4533	739.628	-77.3197	273.7673	98.6086	867.5122	-0.0592	0.0182	-0.0073	-0.0462	0.0165	0.9585
35.482	0.22495	2.3521	0.087832	-0.87174	-0.10806	3.1463	-22.7269	730.22	-76.2472	270.2163	95.7895	852.4166	-0.0592	0.0182	-0.0073	-0.0462	0.0165	0.9585
35.4943	0.3144	2.9796	0.12919	-1.1	-0.094123	3.818	-19.9353	724.0442	-75.1245	267.9107	92.9346	840.9381	-0.0592	0.0182	-0.0073	-0.0462	0.0165	0.9585
35.5066	0.34083	3.4397	0.15717	-1.2666	-0.09278	4.3073	-17.1643	721.4401	-73.9923	266.9724	90.1334	833.4589	-0.0592	0.0182	-0.0073	-0.0462	0.0165	0.9585
35.5189	0.30404	3.7551	0.18573	-1.3744	-0.11551	4.643	-14.5062	722.2918	-72.9273	267.3495	87.4999	829.8567	-0.0592	0.0182	-0.0073	-0.0462	0.0165	0.9585
35.5311	0.22739	3.9213	0.2091	-1.4261	-0.1491	4.8021	-12.0228	726.0976	-71.9187	268.8469	85.0548	829.5654	-0.0592	0.0182	-0.0073	-0.0462	0.0165	0.9585
35.5434	0.10499	3.9157	0.24097	-1.4169	-0.20435	4.7636	-9.7732	732.0647	-71.0053	271.1576	82.8599	831.6985	-0.0592	0.0182	-0.0073	-0.0462	0.0165	0.9585
35.5557	-0.038263	3.6806	0.27073	-1.3289	-0.26694	4.4464	-7.7625	739.229	-70.157	273.9162	80.8949	835.1762	-0.0592	0.0182	-0.0073	-0.0462	0.0165	0.9585
35.568	-0.22277	3.1295	0.30406	-1.1289	-0.35161	3.7483	-5.9835	746.5839	-69.4045	276.7419	79.1867	838.887	-0.0592	0.0182	-0.0073	-0.0462	0.0165	0.9585
35.5803	-0.42153	2.1602	0.32117	-0.77748	-0.43715	2.5311	-4.3699	753.2232	-68.7262	279.2944	77.6829	841.814	-0.0592	0.0182	-0.0073	-0.0462	0.0165	0.9585
35.5926	-0.62077	0.66901	0.32403	-0.23399	-0.51065	0.67607	-2.8501	758.431	-68.1531	281.3047	76.3725	843.1557	-0.0592	0.0182	-0.0073	-0.0462	0.0165	0.9585
35.6049	-0.76834	-1.411	0.29051	0.52202	-0.52723	-1.8959	-1.3046	761.7208	-67.6713	282.5951	75.1848	842.346	-0.0592	0.0182	-0.0073	-0.0462	0.0165	0.9585
35.6171	-0.79935	-4.0484	0.21618	1.4793	-0.45324	-5.1399	0.40515	762.8694	-67.3076	283.0824	74.0849	839.1202	-0.0592	0.0182	-0.0073	-0.0462	0.0165	0.9585
35.6294	-0.6017	-7.0341	0.072983	2.5627	-0.22074	-8.8111	2.4074	761.803	-67.032	282.7448	72.9857	833.3647	-0.0592	0.0182	-0.0073	-0.0462	0.0165	0.9585
35.6417	-0.041333	-9.9019	-0.13453	3.6006	0.22289	-12.3438	4.7902	758.5434	-66.8494	281.5915	71.8467	825.1055	-0.0592	0.0182	-0.0073	-0.0462	0.0165	0.9585
35.654	1.0519	-11.8141	-0.41664	4.2835	0.95089	-14.7045	7.6156	753.0978	-66.7143	279.627	70.5862	814.3732	-0.0592	0.0182	-0.0073	-0.0462	0.0165	0.9585
35.6663	2.852	-11.4649	-0.74485	4.129	1.9987	-14.2806	10.8693	745.4434	-66.6051	276.8402	69.1724	801.1937	-0.0592	0.0182	-0.0073	-0.0462	0.0165	0.9585
35.6786	5.4876	-6.9944	-1.0845	2.4534	3.3699	-8.766	14.5033	735.5559	-66.4595	273.2174	67.5511	785.6088	-0.0592	0.0182	-0.0073	-0.0462	0.0165	0.9585
35.6909	8.9814	3.956	-1.3443	-1.6067	4.968	4.7715	18.3943	723.3776	-66.2296	268.7327	65.7036	767.6617	-0.0592	0.0182	-0.0073	-0.0462	0.0165	0.9585
35.7031	13.1538	24.1081	-1.4105	-9.0392	6.5821	29.7252	22.3851	708.7992	-65.8298	263.3412	63.5951	747.3743	-0.0592	0.0182	-0.0073	-0.0462	0.0165	0.9585
35.7154	17.4896	56.0742	-1.094	-20.789	7.791	69.3663	26.2643	691.5768	-65.157	256.948	61.1962	724.6529	-0.0592	0.0182	-0.0073	-0.0462	0.0165	0.9585
35.7277	21.0027	101.6319	-0.17954	-37.4885	7.9482	125.9536	29.7895	671.2171	-64.072	249.3704	58.4588	699.1453	-0.0592	0.0182	-0.0073	-0.0462	0.0165	0.9585
35.74	22.1028	160.5652	1.6206	-59.0307	6.1135	199.2844	32.7285	646.9339	-62.4267	240.3227	55.3316	670.1809	-0.0592	0.0182	-0.0073	-0.0462	0.0165	0.9585
35.7523	19.046	229.7714	4.6028	-84.2441	1.2941	285.5701	34.856	617.7701	-60.0926	229.4644	51.7858	636.8866	-0.0592	0.0182	-0.0073	-0.0462	0.0165	0.9585
35.7646	11.5949	303.4812	9.1694	-110.9623	-7.0713	377.6127	36.0246	582.899	-56.9532	216.5085	47.7913	598.469	-0.0592	0.0182	-0.0073	-0.0462	0.0165	0.9585
35.7769	1.2913	374.2935	15.6915	-136.4692	-18.7902	465.9393	36.1719	541.8716	-53.0036	201.3088	43.3916	554.4638	-0.0592	0.0182	-0.0073	-0.0462	0.0165	0.9585
35.7891	-9.8784	437.4796	23.6848	-159.0709	-32.5057	544.2719	35.3583	494.8156	-48.3844	183.9203	38.7249	504.9297	-0.0592	0.0182	-0.0073	-0.0462	0.0165	0.9585
35.8014	-20.6046	493.0184	32.0359	-178.7949	-46.3826	612.3288	33.65	442.4705	-43.3827	164.5991	34.0512	450.5381	-0.0592	0.0182	-0.0073	-0.0462	0.0165	0.9585
35.8137	-29.8177	543.1457	39.8544	-196.4926	-58.9644	672.7754	31.1072	385.9365	-38.3552	143.7274	29.6832	392.3163	-0.0592	0.0182	-0.0073	-0.0462	0.0165	0.9585
35.826	-37.0001	589.861	46.5407	-212.9041	-69.3557	728.1614	27.7642	326.7248	-33.5181	121.8379	25.7969	331.7432	-0.0592	0.0182	-0.0073	-0.0462	0.0165	0.9585
